<?xml version="1.0" encoding="UTF-8"?>
<svg version="1.1" xmlns="http://www.w3.org/2000/svg" width="134" height="135">
<path d="M0 0 C0.78431396 -0.0065712 1.56862793 -0.0131424 2.37670898 -0.01991272 C4.96907659 -0.03960055 7.56138629 -0.0513002 10.15380859 -0.0612793 C11.48658907 -0.06739259 11.48658907 -0.06739259 12.8462944 -0.07362938 C17.55214961 -0.09447406 22.25797583 -0.10878092 26.96386719 -0.11816406 C31.80570785 -0.129206 36.64708611 -0.16358481 41.48876381 -0.20333576 C45.22761848 -0.22958334 48.9663645 -0.23786325 52.70530319 -0.24144554 C54.48894741 -0.24629297 56.27258738 -0.2578539 58.0561409 -0.27648354 C71.86932796 -0.41176125 81.53756293 0.74992863 91.97412109 10.66137695 C98.00337425 17.54584333 100.32201152 24.99109803 100.35424805 33.97802734 C100.36081924 34.77194885 100.36739044 35.56587036 100.37416077 36.3838501 C100.39388561 39.01412047 100.4055576 41.64433362 100.41552734 44.2746582 C100.41960287 45.17512815 100.4236784 46.07559811 100.42787743 47.00335503 C100.44873963 51.77404424 100.46303791 56.54470472 100.47241211 61.31542969 C100.48344706 66.22567773 100.51781266 71.13546892 100.55758381 76.04555607 C100.5838314 79.83502499 100.59211139 83.6243867 100.59569359 87.41393852 C100.60054241 89.22270208 100.6121074 91.0314614 100.63073158 92.84013557 C100.76488026 106.73724565 99.6675127 116.47077751 89.69287109 126.97387695 C82.84300538 132.97282768 75.41426987 135.32150793 66.46801758 135.35400391 C65.68384964 135.3605751 64.8996817 135.3671463 64.0917511 135.37391663 C61.49394633 135.39364045 58.8961995 135.40531329 56.29833984 135.4152832 C55.40890245 135.41935873 54.51946507 135.42343426 53.60307503 135.42763329 C48.89074054 135.44849515 44.17843513 135.46279352 39.46606445 135.47216797 C34.61634796 135.48320225 29.76709412 135.51756713 24.91754055 135.55733967 C21.17439468 135.58358995 17.43135733 135.59186749 13.68812752 135.59544945 C11.90169226 135.60029767 10.11526128 135.61186089 8.32891655 135.63048744 C-4.00380471 135.7510375 -13.97218886 135.0127765 -24.00244141 127.01293945 C-31.12336985 119.83088716 -34.12546403 110.96619179 -34.11328125 101.03540039 C-34.11999847 100.2410408 -34.1267157 99.44668121 -34.13363647 98.62825012 C-34.15256118 96.01422792 -34.15653812 93.40046332 -34.15869141 90.78637695 C-34.16512411 88.95802711 -34.17185282 87.12967829 -34.17886353 85.30133057 C-34.19082316 81.47161475 -34.1945458 77.64198903 -34.19335938 73.81225586 C-34.19315648 68.92560052 -34.22043414 64.03952864 -34.25490379 59.15301132 C-34.27723879 55.37639763 -34.28119487 51.59992277 -34.28013992 47.82324982 C-34.28248689 46.02287032 -34.29125901 44.22248646 -34.30680466 42.42217255 C-34.41568038 28.5088832 -33.26262919 18.86947008 -23.26806641 8.38012695 C-16.11041794 1.93138297 -9.43950347 0.03445498 0 0 Z " fill="#F9F9F9" transform="translate(33.82275390625,-0.177001953125)"/>
<path d="M0 0 C0.86431641 -0.00773438 1.72863281 -0.01546875 2.61914062 -0.0234375 C8.13979686 -0.00677137 12.88802411 0.69893389 18.1875 2.25 C18.1875 2.91 18.1875 3.57 18.1875 4.25 C22.6425 5.24 22.6425 5.24 27.1875 6.25 C27.1875 6.91 27.1875 7.57 27.1875 8.25 C27.87328125 8.45238281 28.5590625 8.65476562 29.265625 8.86328125 C42.67904695 15.22927696 52.72313408 31.7792277 57.5625 45.25 C62.45825489 61.8733132 64.62870069 78.96963957 64.1875 96.25 C61.2175 96.25 58.2475 96.25 55.1875 96.25 C55.1875 106.48 55.1875 116.71 55.1875 127.25 C48.2575 127.25 41.3275 127.25 34.1875 127.25 C33.8575 118.01 33.5275 108.77 33.1875 99.25 C32.445 101.621875 31.7025 103.99375 30.9375 106.4375 C30.71288086 107.15446045 30.48826172 107.8714209 30.25683594 108.61010742 C28.21142983 115.15011419 26.20278314 121.7003298 24.1875 128.25 C7.6875 128.25 -8.8125 128.25 -25.8125 128.25 C-28.8125 117.25 -28.8125 117.25 -28.8125 113.25 C-29.4725 113.25 -30.1325 113.25 -30.8125 113.25 C-30.8125 111.93 -30.8125 110.61 -30.8125 109.25 C-30.1525 109.25 -29.4925 109.25 -28.8125 109.25 C-28.4825 108.59 -28.1525 107.93 -27.8125 107.25 C-27.30559416 109.31081361 -26.80725381 111.37373526 -26.3125 113.4375 C-26.0340625 114.58605469 -25.755625 115.73460938 -25.46875 116.91796875 C-24.8125 120.25 -24.8125 120.25 -24.8125 125.25 C-1.5475 124.755 -1.5475 124.755 22.1875 124.25 C25.39064598 113.94465828 25.39064598 113.94465828 28.58935547 103.63793945 C28.9943066 102.33800367 29.39940737 101.03811449 29.8046875 99.73828125 C30.01037354 99.07292358 30.21605957 98.40756592 30.42797852 97.7220459 C31.54497877 94.14671314 32.79269025 90.73702437 34.1875 87.25 C40.4575 87.25 46.7275 87.25 53.1875 87.25 C52.90711196 73.14300209 52.90711196 73.14300209 47.125 60.6875 C45.24784213 59.20776051 45.24784213 59.20776051 43.1875 58.25 C43.1875 57.59 43.1875 56.93 43.1875 56.25 C42.5275 56.25 41.8675 56.25 41.1875 56.25 C41.14625 57.3225 41.105 58.395 41.0625 59.5 C40.1700914 66.84924728 36.03320535 74.68935451 31.1875 80.25 C30.5275 80.25 29.8675 80.25 29.1875 80.25 C29.1875 80.91 29.1875 81.57 29.1875 82.25 C25.72596154 85.25 25.72596154 85.25 23.1875 85.25 C23.1875 88.88 23.1875 92.51 23.1875 96.25 C16.5875 96.25 9.9875 96.25 3.1875 96.25 C3.1875 94.27 3.1875 92.29 3.1875 90.25 C1.5375 90.25 -0.1125 90.25 -1.8125 90.25 C-1.8125 89.92 -1.8125 89.59 -1.8125 89.25 C-0.1625 89.25 1.4875 89.25 3.1875 89.25 C3.1875 83.97 3.1875 78.69 3.1875 73.25 C0.8775 73.25 -1.4325 73.25 -3.8125 73.25 C-4.8025 72.26 -4.8025 72.26 -5.8125 71.25 C-2.8425 71.25 0.1275 71.25 3.1875 71.25 C3.1875 69.27 3.1875 67.29 3.1875 65.25 C2.1975 64.92 1.2075 64.59 0.1875 64.25 C1.1775 64.25 2.1675 64.25 3.1875 64.25 C3.1875 60.29 3.1875 56.33 3.1875 52.25 C-2.7525 52.745 -2.7525 52.745 -8.8125 53.25 C-8.8125 55.23 -8.8125 57.21 -8.8125 59.25 C-6.5025 60.57 -4.1925 61.89 -1.8125 63.25 C-1.8125 63.58 -1.8125 63.91 -1.8125 64.25 C-5.43778568 64.45140476 -7.67751708 64.10776765 -10.8125 62.25 C-10.48289784 67.26535052 -10.48289784 67.26535052 -7.8125 71.25 C-8.8025 71.25 -9.7925 71.25 -10.8125 71.25 C-10.1525 73.23 -9.4925 75.21 -8.8125 77.25 C-9.8025 77.25 -10.7925 77.25 -11.8125 77.25 C-11.8125 79.89 -11.8125 82.53 -11.8125 85.25 C-16.1025 85.25 -20.3925 85.25 -24.8125 85.25 C-24.8125 88.55 -24.8125 91.85 -24.8125 95.25 C-25.4725 95.25 -26.1325 95.25 -26.8125 95.25 C-26.81636719 93.50976562 -26.81636719 93.50976562 -26.8203125 91.734375 C-26.99081011 82.65415962 -27.70689206 75.9574186 -32.38671875 67.94921875 C-34.25472292 64.41280538 -34.86357079 61.04736448 -35.390625 57.11328125 C-35.52984375 56.49839844 -35.6690625 55.88351563 -35.8125 55.25 C-36.4725 54.92 -37.1325 54.59 -37.8125 54.25 C-34.5125 54.25 -31.2125 54.25 -27.8125 54.25 C-27.8125 54.58 -27.8125 54.91 -27.8125 55.25 C-29.7925 55.25 -31.7725 55.25 -33.8125 55.25 C-32.83679039 58.06374361 -31.85711694 60.8759936 -30.875 63.6875 C-30.59720703 64.48994141 -30.31941406 65.29238281 -30.03320312 66.11914062 C-29.76572266 66.88291016 -29.49824219 67.64667969 -29.22265625 68.43359375 C-28.97652588 69.14056396 -28.73039551 69.84753418 -28.47680664 70.57592773 C-27.93782025 72.25682632 -27.93782025 72.25682632 -26.8125 73.25 C-26.77511719 72.46496094 -26.73773438 71.67992188 -26.69921875 70.87109375 C-26.31098655 64.66699099 -25.70095042 59.77573124 -22.8125 54.25 C-24.1325 53.92 -25.4525 53.59 -26.8125 53.25 C-25.966875 52.899375 -25.12125 52.54875 -24.25 52.1875 C-21.20830678 50.47309109 -19.63496129 49.17030939 -17.3125 46.6875 C-14.93552573 44.15345695 -14.14298516 43.33592614 -10.6875 42.4375 C-6.47854608 40.69901904 -5.53620166 37.7297557 -3.59765625 33.7578125 C-2.75359063 31.06184173 -2.83674298 29.85605911 -3.8125 27.25 C-14.55854176 26.82643339 -24.70558017 26.5196562 -33.4375 33.5625 C-39.02013385 38.94323027 -42.87886864 45.62885218 -46.8125 52.25 C-48.4625 51.92 -50.1125 51.59 -51.8125 51.25 C-51.06262578 38.25218027 -44.76802741 27.72131771 -35.4375 19 C-32.64950972 16.58560976 -30.1276105 14.77900672 -26.75 13.3125 C-22.27569408 11.34273584 -19.75413204 8.0560263 -16.76953125 4.2734375 C-12.04586531 -0.61051251 -6.36675493 -0.05621859 0 0 Z " fill="#050505" transform="translate(62.8125,2.75)"/>
<path d="M0 0 C0.78431396 -0.0065712 1.56862793 -0.0131424 2.37670898 -0.01991272 C4.96907659 -0.03960055 7.56138629 -0.0513002 10.15380859 -0.0612793 C11.48658907 -0.06739259 11.48658907 -0.06739259 12.8462944 -0.07362938 C17.55214961 -0.09447406 22.25797583 -0.10878092 26.96386719 -0.11816406 C31.80570785 -0.129206 36.64708611 -0.16358481 41.48876381 -0.20333576 C45.22761848 -0.22958334 48.9663645 -0.23786325 52.70530319 -0.24144554 C54.48894741 -0.24629297 56.27258738 -0.2578539 58.0561409 -0.27648354 C71.86932796 -0.41176125 81.53756293 0.74992863 91.97412109 10.66137695 C98.00337425 17.54584333 100.32201152 24.99109803 100.35424805 33.97802734 C100.36081924 34.77194885 100.36739044 35.56587036 100.37416077 36.3838501 C100.39388561 39.01412047 100.4055576 41.64433362 100.41552734 44.2746582 C100.41960287 45.17512815 100.4236784 46.07559811 100.42787743 47.00335503 C100.44873963 51.77404424 100.46303791 56.54470472 100.47241211 61.31542969 C100.48344706 66.22567773 100.51781266 71.13546892 100.55758381 76.04555607 C100.5838314 79.83502499 100.59211139 83.6243867 100.59569359 87.41393852 C100.60054241 89.22270208 100.6121074 91.0314614 100.63073158 92.84013557 C100.74919537 105.11237243 100.55617134 115.31393862 91.61474609 124.73950195 C90.85033203 125.56579102 90.08591797 126.39208008 89.29833984 127.2434082 C87.17724609 129.17700195 87.17724609 129.17700195 84.17724609 130.17700195 C84.17724609 119.94700195 84.17724609 109.71700195 84.17724609 99.17700195 C87.14724609 99.17700195 90.11724609 99.17700195 93.17724609 99.17700195 C90.4219 66.5990864 86.95156979 37.13355392 61.17724609 14.17700195 C60.25169922 13.62786133 59.32615234 13.0787207 58.37255859 12.51293945 C57.64810547 12.07208008 56.92365234 11.6312207 56.17724609 11.17700195 C56.17724609 10.51700195 56.17724609 9.85700195 56.17724609 9.17700195 C51.72224609 8.18700195 51.72224609 8.18700195 47.17724609 7.17700195 C47.17724609 6.51700195 47.17724609 5.85700195 47.17724609 5.17700195 C41.1095841 4.30415962 35.17981925 3.96374902 29.05224609 3.92700195 C28.18470703 3.90637695 27.31716797 3.88575195 26.42333984 3.86450195 C21.2478131 3.8329919 17.60508827 4.2031763 13.17724609 7.17700195 C11.05105953 9.2974042 11.05105953 9.2974042 9.23974609 11.67700195 C5.80932969 15.72346668 3.09672934 17.14135371 -1.82275391 19.17700195 C-12.16970274 26.85057645 -18.56996428 36.72073109 -21.82275391 49.17700195 C-21.95932488 51.89351617 -21.95932488 51.89351617 -21.82275391 54.17700195 C-20.50275391 54.17700195 -19.18275391 54.17700195 -17.82275391 54.17700195 C-16.28949742 52.27030293 -16.28949742 52.27030293 -15.07275391 49.73950195 C-10.66503327 41.89242355 -4.71881039 33.65728838 4.05615234 30.5012207 C10.86393866 28.65822883 18.18476351 28.5455427 25.17724609 29.17700195 C25.83724609 29.83700195 26.49724609 30.49700195 27.17724609 31.17700195 C26.63189016 36.43704789 24.34620925 40.99527737 21.17724609 45.17700195 C17.80224609 46.80200195 17.80224609 46.80200195 14.17724609 48.17700195 C13.21110842 49.34132171 12.27607747 50.53180265 11.36474609 51.73950195 C7.57290405 55.89661318 3.44539687 55.96724929 -1.88525391 56.36450195 C-2.66553955 56.39938721 -3.4458252 56.43427246 -4.24975586 56.47021484 C-9.51512587 56.756358 -12.67942379 57.61238362 -16.82275391 61.17700195 C-19.67817568 64.83626094 -20.19205977 67.4587261 -20.07275391 72.05200195 C-20.05083984 73.11161133 -20.02892578 74.1712207 -20.00634766 75.26293945 C-19.87917173 78.29279119 -19.87917173 78.29279119 -19.13525391 81.67700195 C-18.8169654 85.24183324 -19.25986429 87.03506199 -20.26025391 90.41137695 C-22.20392996 97.88522702 -22.38165762 105.24453032 -22.51025391 112.92700195 C-22.54352705 114.31765698 -22.5780254 115.70828325 -22.61376953 117.09887695 C-22.69541902 120.45817036 -22.76483784 123.81722991 -22.82275391 127.17700195 C-25.92796544 124.1339325 -28.51428559 121.4574217 -30.57275391 117.61450195 C-30.98009766 116.87071289 -31.38744141 116.12692383 -31.80712891 115.3605957 C-33.9607797 110.7302465 -33.98157831 106.30570096 -33.99975586 101.26245117 C-34.00632706 100.46838364 -34.01289825 99.6743161 -34.01966858 98.85618591 C-34.03935787 96.23135271 -34.05105635 93.60657669 -34.06103516 90.98168945 C-34.06511068 90.08213657 -34.06918621 89.18258369 -34.07338524 88.25577164 C-34.09423047 83.4915617 -34.10853713 78.72738041 -34.11791992 73.96313477 C-34.12896244 69.06076255 -34.1633418 64.15884694 -34.20309162 59.25663567 C-34.22933654 55.47145794 -34.23761888 51.68638756 -34.2412014 47.90112686 C-34.24604945 46.09515434 -34.25761217 44.28918603 -34.2762394 42.48330307 C-34.41111252 28.53729385 -33.28840558 18.89652252 -23.26806641 8.38012695 C-16.11041794 1.93138297 -9.43950347 0.03445498 0 0 Z " fill="#FCFCFC" transform="translate(33.82275390625,-0.177001953125)"/>
<path d="M0 0 C1 3 1 3 0.1015625 5.23046875 C-1.25732654 8.64696636 -1.4195628 11.6488699 -1.625 15.3125 C-1.69976562 16.56675781 -1.77453125 17.82101563 -1.8515625 19.11328125 C-1.90054688 20.06589844 -1.94953125 21.01851562 -2 22 C-5.11801173 18.44965892 -6.82944193 15.37343389 -8.25 10.875 C-8.58515625 9.84117188 -8.9203125 8.80734375 -9.265625 7.7421875 C-10 5 -10 5 -10 2 C-14.68212748 3.14051823 -18.13974223 4.11876033 -21.5625 7.625 C-23.78029448 12.83199574 -23.78463204 17.64610387 -22 23 C-22 25.31 -22 27.62 -22 30 C-16.72 30 -11.44 30 -6 30 C-5.36160789 38.69809254 -4.83672326 47.2737651 -5 56 C-5.66 56 -6.32 56 -7 56 C-7 57.32 -7 58.64 -7 60 C-6.34 60 -5.68 60 -5 60 C-4.49564306 61.9363704 -3.99666126 63.87414146 -3.5 65.8125 C-3.08234375 67.43091797 -3.08234375 67.43091797 -2.65625 69.08203125 C-2 72 -2 72 -2 75 C14.5 75 31 75 48 75 C49.32 69.72 50.64 64.44 52 59 C52.87253891 56.15276776 53.77588827 53.31410055 54.75 50.5 C55.17796875 49.2521875 55.6059375 48.004375 56.046875 46.71875 C56.51867187 45.37296875 56.51867187 45.37296875 57 44 C57.33 44 57.66 44 58 44 C58 53.9 58 63.8 58 74 C64.93 74 71.86 74 79 74 C73.06550799 78.45086901 68.23275599 79.29957588 60.95019531 79.29052734 C60.16558929 79.29724457 59.38098328 79.30396179 58.57260132 79.31088257 C55.9910439 79.32980501 53.40974736 79.3337841 50.828125 79.3359375 C49.02219539 79.34237038 47.21626681 79.34909911 45.41033936 79.35610962 C41.62770168 79.3680687 37.84515523 79.37179195 34.0625 79.37060547 C29.23637578 79.37040258 24.4108424 79.39767971 19.58485794 79.43214989 C15.85456707 79.45448709 12.12441673 79.4584409 8.39406586 79.45738602 C6.61601479 79.45973268 4.8379593 79.46850301 3.05997467 79.48405075 C-8.0686091 79.57224062 -16.33504741 78.97536388 -26.08789062 73.15820312 C-28.70217441 70.20745381 -28.61763992 68.3758372 -28.59375 64.46875 C-28.59117188 63.18226562 -28.58859375 61.89578125 -28.5859375 60.5703125 C-28.57143555 59.90032227 -28.55693359 59.23033203 -28.54199219 58.54003906 C-28.50071833 56.53489759 -28.5038723 54.52899985 -28.5078125 52.5234375 C-28.43433407 45.1315075 -27.71795061 38.51617993 -25.6081543 31.421875 C-24.76154295 28.05038383 -25.33458326 25.38757613 -26 22 C-26.42427087 16.41629232 -26.76305726 11.64350794 -24.375 6.5 C-18.86831773 0.70349235 -14.61637333 -0.49278908 -6.8046875 -1.01953125 C-4.2705381 -1.00188397 -2.3399294 -0.96508609 0 0 Z " fill="#1F1F1F" transform="translate(39,56)"/>
<path d="M0 0 C0.93134766 0.00902344 1.86269531 0.01804688 2.82226562 0.02734375 C5.1109436 0.05081737 7.39908672 0.08365271 9.6875 0.125 C9.6875 0.455 9.6875 0.785 9.6875 1.125 C7.3775 1.455 5.0675 1.785 2.6875 2.125 C2.6875 2.455 2.6875 2.785 2.6875 3.125 C1.80707031 3.17398437 0.92664063 3.22296875 0.01953125 3.2734375 C-1.72263672 3.38558594 -1.72263672 3.38558594 -3.5 3.5 C-5.22283203 3.60441406 -5.22283203 3.60441406 -6.98046875 3.7109375 C-10.87660207 4.19509944 -13.91088867 5.07379151 -17.0625 7.4375 C-18.66026706 9.59448554 -18.95676042 11.49252711 -19.3125 14.125 C-17.9925 14.125 -16.6725 14.125 -15.3125 14.125 C-14.35564575 18.33515871 -14.18068786 20.38212373 -16.3125 24.125 C-14.95705078 24.07279297 -14.95705078 24.07279297 -13.57421875 24.01953125 C-12.39472656 23.99246094 -11.21523438 23.96539063 -10 23.9375 C-8.82824219 23.90269531 -7.65648437 23.86789063 -6.44921875 23.83203125 C-3.3125 24.125 -3.3125 24.125 -1.33203125 25.26171875 C0.27579677 28.20016306 -0.44602704 29.91942193 -1.3125 33.125 C-2.39790284 36.1291013 -3.6184674 39.06394363 -4.875 42 C-5.20435547 42.78375 -5.53371094 43.5675 -5.87304688 44.375 C-6.68046786 46.29408756 -7.49569769 48.2098865 -8.3125 50.125 C-4.6825 50.125 -1.0525 50.125 2.6875 50.125 C2.6875 50.785 2.6875 51.445 2.6875 52.125 C-3.2525 52.62 -3.2525 52.62 -9.3125 53.125 C-9.3125 55.105 -9.3125 57.085 -9.3125 59.125 C-7.0025 60.445 -4.6925 61.765 -2.3125 63.125 C-2.3125 63.455 -2.3125 63.785 -2.3125 64.125 C-5.93778568 64.32640476 -8.17751708 63.98276765 -11.3125 62.125 C-10.98289784 67.14035052 -10.98289784 67.14035052 -8.3125 71.125 C-9.3025 71.125 -10.2925 71.125 -11.3125 71.125 C-10.6525 73.105 -9.9925 75.085 -9.3125 77.125 C-10.3025 77.125 -11.2925 77.125 -12.3125 77.125 C-12.3125 79.765 -12.3125 82.405 -12.3125 85.125 C-16.6025 85.125 -20.8925 85.125 -25.3125 85.125 C-25.3125 88.425 -25.3125 91.725 -25.3125 95.125 C-25.9725 95.125 -26.6325 95.125 -27.3125 95.125 C-27.31636719 93.38476562 -27.31636719 93.38476562 -27.3203125 91.609375 C-27.49081011 82.52915962 -28.20689206 75.8324186 -32.88671875 67.82421875 C-34.75472292 64.28780538 -35.36357079 60.92236448 -35.890625 56.98828125 C-36.02984375 56.37339844 -36.1690625 55.75851563 -36.3125 55.125 C-36.9725 54.795 -37.6325 54.465 -38.3125 54.125 C-35.0125 54.125 -31.7125 54.125 -28.3125 54.125 C-28.3125 54.455 -28.3125 54.785 -28.3125 55.125 C-30.2925 55.125 -32.2725 55.125 -34.3125 55.125 C-33.33679039 57.93874361 -32.35711694 60.7509936 -31.375 63.5625 C-31.09720703 64.36494141 -30.81941406 65.16738281 -30.53320312 65.99414062 C-30.26572266 66.75791016 -29.99824219 67.52167969 -29.72265625 68.30859375 C-29.47652588 69.01556396 -29.23039551 69.72253418 -28.97680664 70.45092773 C-28.43782025 72.13182632 -28.43782025 72.13182632 -27.3125 73.125 C-27.27511719 72.33996094 -27.23773438 71.55492188 -27.19921875 70.74609375 C-26.81098655 64.54199099 -26.20095042 59.65073124 -23.3125 54.125 C-24.6325 53.795 -25.9525 53.465 -27.3125 53.125 C-26.466875 52.774375 -25.62125 52.42375 -24.75 52.0625 C-21.70830678 50.34809109 -20.13496129 49.04530939 -17.8125 46.5625 C-15.43552573 44.02845695 -14.64298516 43.21092614 -11.1875 42.3125 C-6.97854608 40.57401904 -6.03620166 37.6047557 -4.09765625 33.6328125 C-3.25359063 30.93684173 -3.33674298 29.73105911 -4.3125 27.125 C-15.05854176 26.70143339 -25.20558017 26.3946562 -33.9375 33.4375 C-39.52013385 38.81823027 -43.37886864 45.50385218 -47.3125 52.125 C-48.9625 51.795 -50.6125 51.465 -52.3125 51.125 C-51.56262578 38.12718027 -45.26802741 27.59631771 -35.9375 18.875 C-33.14950972 16.46060976 -30.6276105 14.65400672 -27.25 13.1875 C-22.77569408 11.21773584 -20.25413204 7.9310263 -17.26953125 4.1484375 C-12.41059791 -0.87536983 -6.53145412 -0.12001258 0 0 Z " fill="#0A0A0A" transform="translate(63.3125,2.875)"/>
<path d="M0 0 C1.75570312 0.01353516 1.75570312 0.01353516 3.546875 0.02734375 C4.43890625 0.03894531 5.3309375 0.05054688 6.25 0.0625 C12.12049398 12.8708505 12.77120184 23.70666101 8.20703125 37.125 C7.11496746 40.47696724 6.57536694 43.56480539 6.25 47.0625 C2.62 47.0625 -1.01 47.0625 -4.75 47.0625 C-4.0441898 41.06311328 -1.65139862 36.50786274 1.0703125 31.18359375 C2.33387464 27.84059324 2.39512819 26.39542573 1.25 23.0625 C-0.62824891 21.18425109 -3.78935276 21.67147603 -6.3125 21.5 C-7.51003906 21.41621094 -8.70757812 21.33242188 -9.94140625 21.24609375 C-11.33166016 21.15521484 -11.33166016 21.15521484 -12.75 21.0625 C-12.42 17.7625 -12.09 14.4625 -11.75 11.0625 C-13.07 11.0625 -14.39 11.0625 -15.75 11.0625 C-16.0625 8.875 -16.0625 8.875 -15.75 6.0625 C-10.89420371 0.12763787 -7.36877074 -0.07368771 0 0 Z " fill="#F6F6F6" transform="translate(59.75,5.9375)"/>
<path d="M0 0 C0.93134766 0.00902344 1.86269531 0.01804688 2.82226562 0.02734375 C5.1109436 0.05081737 7.39908672 0.08365271 9.6875 0.125 C9.6875 0.455 9.6875 0.785 9.6875 1.125 C7.3775 1.455 5.0675 1.785 2.6875 2.125 C2.6875 2.455 2.6875 2.785 2.6875 3.125 C1.80707031 3.17398437 0.92664063 3.22296875 0.01953125 3.2734375 C-1.72263672 3.38558594 -1.72263672 3.38558594 -3.5 3.5 C-5.22283203 3.60441406 -5.22283203 3.60441406 -6.98046875 3.7109375 C-10.87660207 4.19509944 -13.91088867 5.07379151 -17.0625 7.4375 C-18.66026706 9.59448554 -18.95676042 11.49252711 -19.3125 14.125 C-17.9925 14.125 -16.6725 14.125 -15.3125 14.125 C-14.35564575 18.33515871 -14.18068786 20.38212373 -16.3125 24.125 C-14.95705078 24.07279297 -14.95705078 24.07279297 -13.57421875 24.01953125 C-12.39472656 23.99246094 -11.21523438 23.96539063 -10 23.9375 C-8.82824219 23.90269531 -7.65648437 23.86789063 -6.44921875 23.83203125 C-3.3125 24.125 -3.3125 24.125 -1.390625 25.47265625 C-0.3125 27.125 -0.3125 27.125 -0.375 29.75 C-1.5827222 34.09779994 -3.37063054 38.06062206 -5.3125 42.125 C-6.3025 41.795 -7.2925 41.465 -8.3125 41.125 C-7.93996094 40.44953125 -7.56742188 39.7740625 -7.18359375 39.078125 C-6.71050781 38.18609375 -6.23742188 37.2940625 -5.75 36.375 C-5.27433594 35.49328125 -4.79867187 34.6115625 -4.30859375 33.703125 C-3.23251814 30.91798812 -3.24721252 29.85519786 -4.3125 27.125 C-15.05854176 26.70143339 -25.20558017 26.3946562 -33.9375 33.4375 C-39.52013385 38.81823027 -43.37886864 45.50385218 -47.3125 52.125 C-48.9625 51.795 -50.6125 51.465 -52.3125 51.125 C-51.56262578 38.12718027 -45.26802741 27.59631771 -35.9375 18.875 C-33.14950972 16.46060976 -30.6276105 14.65400672 -27.25 13.1875 C-22.77569408 11.21773584 -20.25413204 7.9310263 -17.26953125 4.1484375 C-12.41059791 -0.87536983 -6.53145412 -0.12001258 0 0 Z " fill="#090909" transform="translate(63.3125,2.875)"/>
<path d="M0 0 C3.09244792 0.03255208 6.18489583 0.06510417 9.27734375 0.09765625 C9.27734375 6.36765625 9.27734375 12.63765625 9.27734375 19.09765625 C6.96734375 19.42765625 4.65734375 19.75765625 2.27734375 20.09765625 C4.58734375 20.42765625 6.89734375 20.75765625 9.27734375 21.09765625 C9.27734375 27.03765625 9.27734375 32.97765625 9.27734375 39.09765625 C7.33859375 39.11828125 5.39984375 39.13890625 3.40234375 39.16015625 C1.76652344 39.17755859 1.76652344 39.17755859 0.09765625 39.1953125 C-2.72265625 39.09765625 -2.72265625 39.09765625 -4.72265625 38.09765625 C-4.72265625 40.07765625 -4.72265625 42.05765625 -4.72265625 44.09765625 C-10.00265625 44.09765625 -15.28265625 44.09765625 -20.72265625 44.09765625 C-19.73265625 43.60265625 -19.73265625 43.60265625 -18.72265625 43.09765625 C-18.72265625 39.79765625 -18.72265625 36.49765625 -18.72265625 33.09765625 C-14.43265625 33.09765625 -10.14265625 33.09765625 -5.72265625 33.09765625 C-5.72265625 30.45765625 -5.72265625 27.81765625 -5.72265625 25.09765625 C-5.06265625 24.76765625 -4.40265625 24.43765625 -3.72265625 24.09765625 C-3.88765625 23.31390625 -4.05265625 22.53015625 -4.22265625 21.72265625 C-4.95679437 17.86843112 -4.72265625 14.01857714 -4.72265625 10.09765625 C-2.41265625 10.42765625 -0.10265625 10.75765625 2.27734375 11.09765625 C1.28734375 10.56140625 0.29734375 10.02515625 -0.72265625 9.47265625 C-3.72265625 7.09765625 -3.72265625 7.09765625 -4.16015625 3.91015625 C-3.57183868 0.12811473 -3.57183868 0.12811473 0 0 Z " fill="#282828" transform="translate(56.72265625,54.90234375)"/>
<path d="M0 0 C0.33 0 0.66 0 1 0 C1 9.9 1 19.8 1 30 C7.93 30 14.86 30 22 30 C16.0511195 34.46166038 11.21803479 35.29934233 3.91845703 35.2746582 C2.73672913 35.2823246 2.73672913 35.2823246 1.53112793 35.29014587 C-1.0600556 35.30398797 -3.6509715 35.30308906 -6.2421875 35.30078125 C-8.0529083 35.30467137 -9.8636282 35.3090067 -11.67434692 35.31376648 C-15.46538249 35.32121729 -19.25632492 35.32094584 -23.04736328 35.31567383 C-27.89152584 35.30988326 -32.73530553 35.32680573 -37.57940483 35.3500185 C-41.31818855 35.36479286 -45.05688088 35.36562247 -48.79568863 35.36250877 C-50.58096194 35.36302021 -52.36624061 35.36822439 -54.15148544 35.37832069 C-56.65446162 35.39073874 -59.15670245 35.38386155 -61.65966797 35.37231445 C-62.75252609 35.38378006 -62.75252609 35.38378006 -63.86746216 35.39547729 C-69.15183772 35.34193554 -73.13461996 34.06536751 -78 32 C-78 31.67 -78 31.34 -78 31 C-73.71 31 -69.42 31 -65 31 C-65.020625 29.63875 -65.04125 28.2775 -65.0625 26.875 C-65.0683928 23.14485838 -64.75187259 19.66537886 -64 16 C-63.34 16 -62.68 16 -62 16 C-61.49564306 17.9363704 -60.99666126 19.87414146 -60.5 21.8125 C-60.2215625 22.89144531 -59.943125 23.97039062 -59.65625 25.08203125 C-59 28 -59 28 -59 31 C-42.5 31 -26 31 -9 31 C-7.68 25.72 -6.36 20.44 -5 15 C-4.12746109 12.15276776 -3.22411173 9.31410055 -2.25 6.5 C-1.82203125 5.2521875 -1.3940625 4.004375 -0.953125 2.71875 C-0.48132813 1.37296875 -0.48132813 1.37296875 0 0 Z " fill="#F7F7F7" transform="translate(96,100)"/>
<path d="M0 0 C6.27 0 12.54 0 19 0 C19 2.64 19 5.28 19 8 C13.06 8 7.12 8 1 8 C1 18.56 1 29.12 1 40 C0.67 40 0.34 40 0 40 C-0.33 30.76 -0.66 21.52 -1 12 C-1.7425 14.371875 -2.485 16.74375 -3.25 19.1875 C-3.47461914 19.90446045 -3.69923828 20.6214209 -3.93066406 21.36010742 C-5.97607017 27.90011419 -7.98471686 34.4503298 -10 41 C-26.5 41 -43 41 -60 41 C-63 30 -63 30 -63 26 C-63.66 26 -64.32 26 -65 26 C-65 24.68 -65 23.36 -65 22 C-64.34 22 -63.68 22 -63 22 C-62.67 21.34 -62.34 20.68 -62 20 C-61.49309416 22.06081361 -60.99475381 24.12373526 -60.5 26.1875 C-60.2215625 27.33605469 -59.943125 28.48460938 -59.65625 29.66796875 C-59 33 -59 33 -59 38 C-43.49 37.67 -27.98 37.34 -12 37 C-8.79685402 26.69465828 -8.79685402 26.69465828 -5.59814453 16.38793945 C-5.1931934 15.08800367 -4.78809263 13.78811449 -4.3828125 12.48828125 C-4.17712646 11.82292358 -3.97144043 11.15756592 -3.75952148 10.4720459 C-2.64252123 6.89671314 -1.39480975 3.48702437 0 0 Z " fill="#474747" transform="translate(97,90)"/>
<path d="M0 0 C5.28 0 10.56 0 16 0 C16.07145863 6.93148697 15.98380114 13.113392 15 20 C10.05 20 5.1 20 0 20 C0 13.4 0 6.8 0 0 Z " fill="#FDFDFD" transform="translate(14,108)"/>
<path d="M0 0 C3.09244792 0.03255208 6.18489583 0.06510417 9.27734375 0.09765625 C9.27734375 6.36765625 9.27734375 12.63765625 9.27734375 19.09765625 C6.96734375 19.42765625 4.65734375 19.75765625 2.27734375 20.09765625 C4.58734375 20.42765625 6.89734375 20.75765625 9.27734375 21.09765625 C9.27734375 22.74765625 9.27734375 24.39765625 9.27734375 26.09765625 C6.30734375 26.09765625 3.33734375 26.09765625 0.27734375 26.09765625 C0.27734375 25.43765625 0.27734375 24.77765625 0.27734375 24.09765625 C-1.37265625 23.76765625 -3.02265625 23.43765625 -4.72265625 23.09765625 C-4.53703125 22.29328125 -4.35140625 21.48890625 -4.16015625 20.66015625 C-4.01578125 19.81453125 -3.87140625 18.96890625 -3.72265625 18.09765625 C-4.05265625 17.76765625 -4.38265625 17.43765625 -4.72265625 17.09765625 C-4.76358562 14.76468192 -4.76507348 12.430604 -4.72265625 10.09765625 C-2.41265625 10.42765625 -0.10265625 10.75765625 2.27734375 11.09765625 C1.28734375 10.56140625 0.29734375 10.02515625 -0.72265625 9.47265625 C-3.72265625 7.09765625 -3.72265625 7.09765625 -4.16015625 3.91015625 C-3.57183868 0.12811473 -3.57183868 0.12811473 0 0 Z " fill="#DFDFDF" transform="translate(56.72265625,54.90234375)"/>
<path d="M0 0 C5.28 0 10.56 0 16 0 C16 5.61 16 11.22 16 17 C10.72 17 5.44 17 0 17 C0 11.39 0 5.78 0 0 Z " fill="#FDFDFD" transform="translate(100,111)"/>
<path d="M0 0 C1.65 0.33 3.3 0.66 5 1 C4.52534858 10.80946278 0.98620494 19.01379506 -6 26 C-8.8125 27.375 -8.8125 27.375 -11 28 C-11.92236025 19.66459627 -11.92236025 19.66459627 -9.83984375 15.90625 C-8.80616636 14.61613602 -7.74782815 13.34546351 -6.66796875 12.09375 C-3.76439677 8.44898517 -1.94962969 4.20981986 0 0 Z " fill="#F3F3F3" transform="translate(97,57)"/>
<path d="M0 0 C1.50237454 2.78381165 2.45059034 5.34913194 3.125 8.4375 C3.29257812 9.17871094 3.46015625 9.91992188 3.6328125 10.68359375 C4.02510872 13.15839866 4.02437725 15.49821981 4 18 C10.65703575 17.88258093 17.31390243 17.75774651 23.97070312 17.62768555 C26.23662134 17.5842977 28.50257307 17.54262551 30.76855469 17.50268555 C34.02028518 17.44507615 37.27184636 17.38135498 40.5234375 17.31640625 C41.54118256 17.29969376 42.55892761 17.28298126 43.60751343 17.26576233 C45.01874985 17.2358445 45.01874985 17.2358445 46.45849609 17.20532227 C47.70425919 17.18200584 47.70425919 17.18200584 48.97518921 17.15821838 C51.06878436 17.12234803 51.06878436 17.12234803 53 16 C53 17.65 53 19.3 53 21 C36.5 21 20 21 3 21 C0 10 0 10 0 6 C-0.66 6 -1.32 6 -2 6 C-2 4.68 -2 3.36 -2 2 C-1.34 2 -0.68 2 0 2 C0 1.34 0 0.68 0 0 Z " fill="#535353" transform="translate(34,110)"/>
<path d="M0 0 C0.66 0 1.32 0 2 0 C2.81678985 2.84623701 3.19953418 4.46790884 2.14453125 7.28125 C1.70496094 8.0134375 1.26539062 8.745625 0.8125 9.5 C0.34972656 10.28503906 -0.11304687 11.07007812 -0.58984375 11.87890625 C-2 14 -2 14 -4.25 16.4375 C-6.9028603 20.32204543 -6.82091141 24.38846883 -7 29 C-3.40485666 27.96880036 -3.40485666 27.96880036 -1 25.3125 C-0.67 24.549375 -0.34 23.78625 0 23 C0.80074829 21.92861553 1.61479833 20.86712053 2.4375 19.8125 C5.33822561 15.86476692 6.69410255 11.68212011 8 7 C9.16796875 8.625 9.16796875 8.625 10 11 C8.98828125 13.875 8.98828125 13.875 7.3125 17 C6.77238281 18.03125 6.23226562 19.0625 5.67578125 20.125 C4.24087199 22.58675575 2.87263251 24.85395283 1 27 C0.34 27 -0.32 27 -1 27 C-1 27.66 -1 28.32 -1 29 C-3 30.625 -3 30.625 -5 32 C-7 31 -7 31 -8 30 C-9.43011497 12.60328499 -9.43011497 12.60328499 -5.125 7.125 C-4.08333333 6.08333333 -3.04166667 5.04166667 -2 4 C-0.81686303 1.8959501 -0.81686303 1.8959501 0 0 Z " fill="#2B2B2B" transform="translate(93,56)"/>
<path d="M0 0 C5.28 0 10.56 0 16 0 C16 2.97 16 5.94 16 9 C10.72 9 5.44 9 0 9 C0 6.03 0 3.06 0 0 Z " fill="#7C7C7C" transform="translate(68,88)"/>
<path d="M0 0 C5.94 0 11.88 0 18 0 C18 2.31 18 4.62 18 7 C12.06 7 6.12 7 0 7 C0 4.69 0 2.38 0 0 Z " fill="#5C5C5C" transform="translate(13,99)"/>
<path d="M0 0 C4.62 0.66 9.24 1.32 14 2 C14 4.64 14 7.28 14 10 C9.38 10 4.76 10 0 10 C0 6.7 0 3.4 0 0 Z " fill="#EDEDED" transform="translate(52,81)"/>
<path d="M0 0 C5.61 0 11.22 0 17 0 C17 1.65 17 3.3 17 5 C11.72 5 6.44 5 1 5 C1 10.61 1 16.22 1 22 C6.28 22 11.56 22 17 22 C17 22.33 17 22.66 17 23 C11.39 23 5.78 23 0 23 C0 15.41 0 7.82 0 0 Z " fill="#7E7E7E" transform="translate(99,106)"/>
<path d="M0 0 C3.96 0 7.92 0 12 0 C12 2.97 12 5.94 12 9 C8.04 9 4.08 9 0 9 C0 6.03 0 3.06 0 0 Z " fill="#C9C9C9" transform="translate(38,88)"/>
<path d="M0 0 C0.33 0.66 0.66 1.32 1 2 C6.61 2 12.22 2 18 2 C18 3.98 18 5.96 18 8 C12.39 8 6.78 8 1 8 C0.67 5.36 0.34 2.72 0 0 Z " fill="#818181" transform="translate(13,89)"/>
<path d="M0 0 C5.94 0 11.88 0 18 0 C18 2.97 18 5.94 18 9 C17.67 9 17.34 9 17 9 C17 6.36 17 3.72 17 1 C11.72 1 6.44 1 1 1 C1 7.6 1 14.2 1 21 C5.95 21 10.9 21 16 21 C16 18.69 16 16.38 16 14 C16.33 14 16.66 14 17 14 C17.33 17.3 17.66 20.6 18 24 C15.5622037 24.05397335 13.12560315 24.09365616 10.6875 24.125 C9.65206055 24.15013672 9.65206055 24.15013672 8.59570312 24.17578125 C4.82864604 24.21217794 3.21568296 24.14378864 0 22 C-0.34057617 19.75341797 -0.34057617 19.75341797 -0.29296875 16.9921875 C-0.28330078 16.00605469 -0.27363281 15.01992187 -0.26367188 14.00390625 C-0.23853516 12.97136719 -0.21339844 11.93882813 -0.1875 10.875 C-0.17396484 9.83472656 -0.16042969 8.79445313 -0.14648438 7.72265625 C-0.11105633 5.14821821 -0.05724812 2.57404526 0 0 Z " fill="#747474" transform="translate(13,107)"/>
<path d="M0 0 C5.61 0 11.22 0 17 0 C17 1.98 17 3.96 17 6 C11.39 6 5.78 6 0 6 C0 4.02 0 2.04 0 0 Z " fill="#7C7C7C" transform="translate(99,99)"/>
<path d="M0 0 C-0.66 6.6 -1.32 13.2 -2 20 C-6.57342147 14.28322316 -9.73088668 8.55249569 -9 1 C-5.94152152 0.45627049 -3.11227195 0 0 0 Z " fill="#F9F9F9" transform="translate(39,58)"/>
<path d="M0 0 C3.96 0 7.92 0 12 0 C12 2.97 12 5.94 12 9 C8.30371031 9.21742881 5.54218828 9.20764658 2.0625 7.875 C1.381875 7.25625 0.70125 6.6375 0 6 C0 4.02 0 2.04 0 0 Z " fill="#F8F8F8" transform="translate(53,56)"/>
<path d="M0 0 C0 0.99 0 1.98 0 3 C-2.97 3 -5.94 3 -9 3 C-9.33 3.66 -9.66 4.32 -10 5 C-10 4.01 -10 3.02 -10 2 C-14.57262219 3.11384387 -18.10511544 4.14876834 -21.5625 7.4375 C-23.65160476 12.61484659 -23.32104953 17.48864972 -23 23 C-23.66 23.33 -24.32 23.66 -25 24 C-27.09305576 19.81388848 -26.42364608 14.55867052 -26 10 C-23.72295492 5.0955952 -20.8614881 2.34393176 -16 0 C-10.62854428 -0.92164388 -5.27614897 -1.65352994 0 0 Z " fill="#606060" transform="translate(39,56)"/>
<path d="M0 0 C0.33 0 0.66 0 1 0 C1 2.31 1 4.62 1 7 C6.28 7 11.56 7 17 7 C17 9.64 17 12.28 17 15 C16.34 13.68 15.68 12.36 15 11 C9.72 11 4.44 11 -1 11 C-0.67 7.37 -0.34 3.74 0 0 Z " fill="#616161" transform="translate(16,79)"/>
<path d="M0 0 C0.33 0 0.66 0 1 0 C0.67 11.88 0.34 23.76 0 36 C-0.66 35.67 -1.32 35.34 -2 35 C-2.04961351 30.81910808 -2.08582016 26.63837434 -2.10986328 22.45727539 C-2.11989146 21.03634657 -2.13351741 19.61543822 -2.15087891 18.19458008 C-2.17526821 16.14659556 -2.1865149 14.09888502 -2.1953125 12.05078125 C-2.21102295 10.20480347 -2.21102295 10.20480347 -2.22705078 8.3215332 C-2.0066407 5.09714697 -1.38799202 2.89365119 0 0 Z " fill="#272727" transform="translate(13,92)"/>
<path d="M0 0 C5.61 0 11.22 0 17 0 C17 1.32 17 2.64 17 4 C11.39 4 5.78 4 0 4 C0 2.68 0 1.36 0 0 Z " fill="#A6A6A6" transform="translate(99,94)"/>
<path d="M0 0 C0.66 0 1.32 0 2 0 C0.58124134 10.18541666 -2.07505408 20.90253045 -7 30 C-8.19860248 25.7726343 -7.72653883 23.17961648 -6.34765625 19.04296875 C-5.98349609 17.93115234 -5.61933594 16.81933594 -5.24414062 15.67382812 C-4.65922852 13.9480957 -4.65922852 13.9480957 -4.0625 12.1875 C-3.48338867 10.43276367 -3.48338867 10.43276367 -2.89257812 8.64257812 C-1.93891217 5.75803296 -0.97441639 2.87758825 0 0 Z " fill="#2F2F2F" transform="translate(94,99)"/>
<path d="M0 0 C2.4294516 3.6441774 2.16179575 5.71241272 2 10 C1.34 10 0.68 10 0 10 C0.01160156 10.66386719 0.02320312 11.32773438 0.03515625 12.01171875 C0.12478032 20.78207381 0.12478032 20.78207381 -1 25 C-1.33 25 -1.66 25 -2 25 C-2.11381955 18.23405981 -1.88021369 11.71162938 -1 5 C-6.94 5 -12.88 5 -19 5 C-19 4.67 -19 4.34 -19 4 C-13.06 4 -7.12 4 -1 4 C-0.67 2.68 -0.34 1.36 0 0 Z " fill="#0A0A0A" transform="translate(32,102)"/>
<path d="M0 0 C1.26197289 3.16312685 1.11518999 4.66527144 0.00390625 7.89453125 C-0.47175781 8.85746094 -0.94742188 9.82039063 -1.4375 10.8125 C-1.91058594 11.78832031 -2.38367188 12.76414062 -2.87109375 13.76953125 C-3.24363281 14.50558594 -3.61617187 15.24164063 -4 16 C-4.99 15.67 -5.98 15.34 -7 15 C-6.62746094 14.32453125 -6.25492188 13.6490625 -5.87109375 12.953125 C-5.39800781 12.06109375 -4.92492187 11.1690625 -4.4375 10.25 C-3.96183594 9.36828125 -3.48617187 8.4865625 -2.99609375 7.578125 C-1.92001814 4.79298812 -1.93471252 3.73019786 -3 1 C-5.22909871 0.97285265 -7.45829367 0.95353746 -9.6875 0.9375 C-10.92886719 0.92589844 -12.17023437 0.91429687 -13.44921875 0.90234375 C-16.46235454 0.98521327 -19.08275339 1.29160551 -22 2 C-20.05159678 -0.72776451 -18.94613059 -1.00913145 -15.56640625 -1.58203125 C-14.23268892 -1.67341804 -12.89787175 -1.74976441 -11.5625 -1.8125 C-10.89412109 -1.86341797 -10.22574219 -1.91433594 -9.53710938 -1.96679688 C-2.83203296 -2.35886775 -2.83203296 -2.35886775 0 0 Z " fill="#4D4D4D" transform="translate(62,29)"/>
<path d="M0 0 C3.3 0 6.6 0 10 0 C10 0.33 10 0.66 10 1 C8.02 1 6.04 1 4 1 C4.95509784 3.75116234 5.91393982 6.50092088 6.875 9.25 C7.14441406 10.02730469 7.41382813 10.80460937 7.69140625 11.60546875 C8.08779297 12.73662109 8.08779297 12.73662109 8.4921875 13.890625 C8.73308105 14.58188477 8.97397461 15.27314453 9.22216797 15.98535156 C10.02559022 18.06628076 10.97201928 20.021622 12 22 C11.01 22 10.02 22 9 22 C5.8583207 15.69265911 3.46210579 9.90082496 2.45703125 2.8984375 C2.30621094 2.27195313 2.15539062 1.64546875 2 1 C1.34 0.67 0.68 0.34 0 0 Z " fill="#232323" transform="translate(25,57)"/>
<path d="M0 0 C2.31 0 4.62 0 7 0 C7 2.97 7 5.94 7 9 C4.69 9 2.38 9 0 9 C0 6.03 0 3.06 0 0 Z " fill="#ACACAC" transform="translate(118,88)"/>
<path d="M0 0 C5.61 0 11.22 0 17 0 C17 0.99 17 1.98 17 3 C11.39 3 5.78 3 0 3 C0 2.01 0 1.02 0 0 Z " fill="#DBDBDB" transform="translate(14,99)"/>
<path d="M0 0 C0.99 0 1.98 0 3 0 C3 1.98 3 3.96 3 6 C5.97 6 8.94 6 12 6 C12 4.02 12 2.04 12 0 C12.99 0 13.98 0 15 0 C15 2.31 15 4.62 15 7 C10.05 7 5.1 7 0 7 C0 4.69 0 2.38 0 0 Z " fill="#F2F2F2" transform="translate(68,89)"/>
<path d="M0 0 C2.64 0 5.28 0 8 0 C8.33 1.98 8.66 3.96 9 6 C6.03 6 3.06 6 0 6 C0 4.02 0 2.04 0 0 Z " fill="#656565" transform="translate(40,89)"/>
<path d="M0 0 C0.93134766 0.00902344 1.86269531 0.01804688 2.82226562 0.02734375 C5.1109436 0.05081737 7.39908672 0.08365271 9.6875 0.125 C9.6875 0.455 9.6875 0.785 9.6875 1.125 C7.3775 1.455 5.0675 1.785 2.6875 2.125 C2.6875 2.455 2.6875 2.785 2.6875 3.125 C0.06299914 3.34619939 -2.56120486 3.55246669 -5.1875 3.75 C-5.93386719 3.81445312 -6.68023437 3.87890625 -7.44921875 3.9453125 C-9.3995047 4.08587365 -11.35719467 4.11259849 -13.3125 4.125 C-13.9725 3.465 -14.6325 2.805 -15.3125 2.125 C-10.36836159 -0.51881296 -5.44449976 -0.10004028 0 0 Z " fill="#727272" transform="translate(63.3125,2.875)"/>
<path d="M0 0 C3.18446935 5.91401451 4.34333902 12.3048892 4 19 C3.34 18.67 2.68 18.34 2 18 C0.73238238 13.70418473 0 10.49055702 0 6 C-0.66 6 -1.32 6 -2 6 C-2 4.68 -2 3.36 -2 2 C-1.34 2 -0.68 2 0 2 C0 1.34 0 0.68 0 0 Z " fill="#333333" transform="translate(34,110)"/>
<path d="M0 0 C3.96 0 7.92 0 12 0 C12 4.62 12 9.24 12 14 C9.69 13.67 7.38 13.34 5 13 C5 12.01 5 11.02 5 10 C6.98 10 8.96 10 11 10 C11 7.03 11 4.06 11 1 C7.37 1 3.74 1 0 1 C0 0.67 0 0.34 0 0 Z " fill="#BBBBBB" transform="translate(54,55)"/>
<path d="M0 0 C1 3 1 3 0.328125 4.90234375 C-3.68085986 12.47002894 -3.68085986 12.47002894 -6 15 C-6.66 15 -7.32 15 -8 15 C-7.4520917 10.7170548 -5.97567196 8.14864359 -3.4375 4.6875 C-2.79683594 3.80449219 -2.15617187 2.92148437 -1.49609375 2.01171875 C-0.75552734 1.01591797 -0.75552734 1.01591797 0 0 Z " fill="#D4D4D4" transform="translate(93,57)"/>
<path d="M0 0 C1.16796875 1.6171875 1.16796875 1.6171875 2 4 C0.98828125 6.9453125 0.98828125 6.9453125 -0.6875 10.125 C-1.22761719 11.17945312 -1.76773438 12.23390625 -2.32421875 13.3203125 C-4 16 -4 16 -7 18 C-6.13403824 13.74891498 -4.15663682 10.25219114 -2.15625 6.4375 C-1.1279202 4.26966961 -0.47688783 2.34108569 0 0 Z " fill="#2A2A2A" transform="translate(101,63)"/>
<path d="M0 0 C0.33 0 0.66 0 1 0 C1 2.97 1 5.94 1 9 C4.81413002 7.8321734 4.81413002 7.8321734 7.3125 4.875 C7.539375 4.25625 7.76625 3.6375 8 3 C8.33 4.32 8.66 5.64 9 7 C8.34 7 7.68 7 7 7 C7 7.66 7 8.32 7 9 C5 10.625 5 10.625 3 12 C1 11 1 11 0 10 C-0.07205511 8.31391034 -0.08386068 6.62499341 -0.0625 4.9375 C-0.05347656 4.01839844 -0.04445313 3.09929687 -0.03515625 2.15234375 C-0.02355469 1.44207031 -0.01195313 0.73179688 0 0 Z " fill="#5D5D5D" transform="translate(85,76)"/>
<path d="M0 0 C0.99386719 0.00902344 1.98773438 0.01804687 3.01171875 0.02734375 C4.15060547 0.04474609 4.15060547 0.04474609 5.3125 0.0625 C5.3125 1.0525 5.3125 2.0425 5.3125 3.0625 C3.35446493 3.11639087 1.39601091 3.15524217 -0.5625 3.1875 C-1.65304688 3.21070312 -2.74359375 3.23390625 -3.8671875 3.2578125 C-6.6875 3.0625 -6.6875 3.0625 -8.6875 1.0625 C-5.53819107 0.01273036 -3.29935544 -0.03881595 0 0 Z " fill="#6E6E6E" transform="translate(60.6875,90.9375)"/>
<path d="M0 0 C1.65 0.33 3.3 0.66 5 1 C5 2.65 5 4.3 5 6 C3.35 6 1.7 6 0 6 C-1.125 2.25 -1.125 2.25 0 0 Z " fill="#494949" transform="translate(50,12)"/>
<path d="M0 0 C0.66 0 1.32 0 2 0 C2.33 4.29 2.66 8.58 3 13 C2.01 13.495 2.01 13.495 1 14 C-0.38226016 11.23547967 -0.09525387 8.9538637 -0.0625 5.875 C-0.05347656 4.77929688 -0.04445313 3.68359375 -0.03515625 2.5546875 C-0.02355469 1.71164063 -0.01195312 0.86859375 0 0 Z " fill="#222222" transform="translate(13,66)"/>
<path d="M0 0 C0 0.66 0 1.32 0 2 C2.97 2 5.94 2 9 2 C9 2.66 9 3.32 9 4 C7.04098546 3.88617347 5.0827662 3.75858875 3.125 3.625 C2.03445312 3.55539063 0.94390625 3.48578125 -0.1796875 3.4140625 C-3 3 -3 3 -5 1 C-3 0 -3 0 0 0 Z " fill="#454545" transform="translate(57,79)"/>
<path d="M0 0 C0.99 0 1.98 0 3 0 C3.33 2.31 3.66 4.62 4 7 C2.68 7 1.36 7 0 7 C0 4.69 0 2.38 0 0 Z " fill="#FEFEFE" transform="translate(68,89)"/>
<path d="M0 0 C0.99 0.33 1.98 0.66 3 1 C2.21625 1.7425 1.4325 2.485 0.625 3.25 C-1.56504531 5.54433318 -2.82731386 7.12158858 -4 10 C-4.8125 7.8125 -4.8125 7.8125 -5 5 C-2.5625 2.1875 -2.5625 2.1875 0 0 Z " fill="#3B3B3B" transform="translate(47,6)"/>
<path d="M0 0 C0.66 0 1.32 0 2 0 C1.35455571 3.48539917 -0.10134397 6.02819057 -2 9 C-2.6875 7.3125 -2.6875 7.3125 -3 5 C-1.6875 2.25 -1.6875 2.25 0 0 Z " fill="#C2C2C2" transform="translate(89,55)"/>
<path d="M0 0 C0.66 0.99 1.32 1.98 2 3 C0.35 4.65 -1.3 6.3 -3 8 C-4 7 -4 7 -4.0625 4.4375 C-4.041875 3.633125 -4.02125 2.82875 -4 2 C-3.34 2.66 -2.68 3.32 -2 4 C-1.34 2.68 -0.68 1.36 0 0 Z " fill="#3D3D3D" transform="translate(89,59)"/>
<path d="M0 0 C0.66 0.99 1.32 1.98 2 3 C1.01 4.98 0.02 6.96 -1 9 C-1.99 8.67 -2.98 8.34 -4 8 C-2.68 5.36 -1.36 2.72 0 0 Z " fill="#303030" transform="translate(59,36)"/>
<path d="M0 0 C2.31 0.33 4.62 0.66 7 1 C7 1.99 7 2.98 7 4 C4.69 3.67 2.38 3.34 0 3 C0 2.01 0 1.02 0 0 Z " fill="#7A7A7A" transform="translate(59,65)"/>
<path d="M0 0 C3.96 1.98 3.96 1.98 8 4 C8 4.33 8 4.66 8 5 C4.85375007 5.26218749 3.38162983 5.24754367 0.6875 3.5 C0.130625 3.005 -0.42625 2.51 -1 2 C-0.67 1.34 -0.34 0.68 0 0 Z " fill="#3B3B3B" transform="translate(53,62)"/>
</svg>
